<svg class="svg-icon" style="width: 1em; height: 1em;vertical-align: middle;fill: currentColor;overflow: hidden;" viewBox="0 0 1024 1024" version="1.1" xmlns="http://www.w3.org/2000/svg"><path d="M650.8 208.5c0-31-25.4-56.4-56.4-56.4H164c31 0 56.4 25.4 56.4 56.4v374.3c0 31 25.4 56.4 56.4 56.4s56.4-25.4 56.4-56.4V366c0-30.9 25.2-56.2 56-56.3h-0.3 261.9V208.5z" fill="#B6F5FF" /><path d="M859.4 858.5h-361v-0.1c-33.2-2-59.5-29.6-59.5-63.3v-429c0-27.2-22.1-49.4-49.4-49.4s-49.4 22.1-49.4 49.4v216.8c0 34.9-28.4 63.4-63.4 63.4-32.9 0-60-25.2-63.1-57.3h-0.3V282.5H100.7v-73.9c0-34.9 28.4-63.4 63.4-63.4s63.4 28.4 63.4 63.4V583c0 27.2 22.1 49.4 49.4 49.4s49.4-22.1 49.4-49.4V366.1c0-34.9 28.4-63.4 63.4-63.4s63.4 28.4 63.4 63.4v429c0 27.2 22.1 49.4 49.4 49.4s49.4-22.1 49.4-49.4v-38.6h371.2v38.6c-0.3 35-28.8 63.4-63.7 63.4z m-317.5-14h317.5c27.2 0 49.4-22.1 49.4-49.4v-24.6H565.6v24.6c0 20-9.3 37.8-23.7 49.4z m-427.2-576h98.7v-59.9c0-27.2-22.1-49.4-49.4-49.4s-49.4 22.1-49.4 49.4v59.9zM657.8 309.8h-14V208.5c0-27.2-22.1-49.4-49.4-49.4h-31.6v-14h31.6c34.9 0 63.4 28.4 63.4 63.4v101.3z" fill="#0F13AE" /><path d="M868.3 759.9h-14V366.2c0-27.2-22.1-49.4-49.4-49.4h-31.6v-14h31.6c34.9 0 63.4 28.4 63.4 63.4v393.7zM276.8 632.3h169.1v14H276.8z" fill="#0F13AE" /><path d="M501.7 378.2H610v14H501.7zM350.4 244.3h215.4v14H350.4zM565.1 490.6h108.3v14H565.1zM501.7 546.9H610v14H501.7zM619.3 659.3H791v14H619.3zM565.1 434.4h227.2v14H565.1zM565.1 603.1h227.2v14H565.1zM294.4 194.3h14v11.6h-14zM337.5 194.3h14v11.6h-14zM380.5 194.3h14v11.6h-14z" fill="#49A3FE" /><path d="M694 388.3v-11.6" fill="#B6F5FF" /><path d="M687 376.7h14v11.6h-14z" fill="#49A3FE" /><path d="M737.1 388.3v-11.6" fill="#B6F5FF" /><path d="M730.1 376.7h14v11.6h-14z" fill="#49A3FE" /><path d="M780.1 388.3v-11.6" fill="#B6F5FF" /><path d="M773.1 376.7h14v11.6h-14z" fill="#49A3FE" /><path d="M592.2 671.6V661" fill="#B6F5FF" /><path d="M585.2 661h14v10.6h-14z" fill="#49A3FE" /><path d="M388.9 309.8h412.7" fill="#B6F5FF" /><path d="M388.9 302.8h412.7v14H388.9z" fill="#0F13AE" /><path d="M164 152.2h406.2" fill="#B6F5FF" /><path d="M164 145.2h406.2v14H164z" fill="#0F13AE" /></svg>