<?xml version="1.0"?>
<svg xmlns:rdf="http://www.w3.org/1999/02/22-rdf-syntax-ns#" xmlns="http://www.w3.org/2000/svg" xmlns:cc="http://web.resource.org/cc/" xmlns:xlink="http://www.w3.org/1999/xlink" xmlns:dc="http://purl.org/dc/elements/1.1/" xmlns:svg="http://www.w3.org/2000/svg" id="svg2" viewBox="0 0 211.91 51.5" version="1.0">
  <defs id="defs4">
    <linearGradient id="linearGradient1893" x1="317.86" gradientUnits="userSpaceOnUse" y1="495.21" gradientTransform="matrix(.60162 0 0 .23528 150.46 341.68)" x2="317.86" y2="548.08">
      <stop id="stop2779" stop-color="#73d216" offset="0"/>
      <stop id="stop2781" stop-color="#4e9a06" offset="1"/>
    </linearGradient>
    <linearGradient id="linearGradient1895" x1="335.71" gradientUnits="userSpaceOnUse" y1="430.65" gradientTransform="matrix(.70829 0 0 .70829 97.43 133.17)" x2="335.71" y2="445.29">
      <stop id="stop2838" stop-color="#8ae234" offset="0"/>
      <stop id="stop2840" stop-color="#8ae234" stop-opacity="0" offset="1"/>
    </linearGradient>
  </defs>
  <g id="layer1" transform="translate(-235.54 -433.37)">
    <g id="g1885" transform="translate(7.5002 6.499)">
      <path id="rect1872" d="m241.25 433.37h185.49c3.16 0 5.71 2.54 5.71 5.7v27.1c0 3.16-2.55 5.7-5.71 5.7h-185.49c-3.16 0-5.71-2.54-5.71-5.7v-27.1c0-3.16 2.55-5.7 5.71-5.7z" fill="url(#linearGradient1893)"/>
      <path id="rect2831" d="m241.24 433.38c-3.16 0-5.69 2.52-5.69 5.68v14.02h196.9v-14.02c0-3.16-2.55-5.68-5.71-5.68h-185.5z" fill="url(#linearGradient1895)"/>
      <path id="rect2796" opacity=".12917" fill="#fff" d="m243.78 433.38l-8.23 31.27v1.51c0 3.16 2.53 5.71 5.69 5.71h12.12l10.16-38.49h-19.74zm33.6 0l-10.16 38.49h19.74l10.16-38.49h-19.74zm33.6 0l-10.16 38.49h19.74l10.14-38.49h-19.72zm33.6 0l-10.16 38.49h19.72l10.16-38.49h-19.72zm33.58 0l-10.14 38.49h19.72l10.16-38.49h-19.74zm33.6 0l-10.16 38.49h19.74l9.65-36.61c-1.04-1.16-2.56-1.88-4.25-1.88h-14.98z"/>
      <g id="g2820" transform="matrix(.63422 0 0 .63422 122.2 166.61)">
        <path id="path2827" opacity=".25833" d="m225.92 439.52h11.21c2.21 0 3.99 0.3 5.35 0.9s2.49 1.46 3.38 2.58c0.88 1.12 1.53 2.42 1.93 3.91s0.6 3.07 0.6 4.73c0 2.61-0.3 4.64-0.89 6.07-0.6 1.44-1.42 2.65-2.48 3.62-1.05 0.97-2.18 1.62-3.39 1.94-1.66 0.44-3.16 0.67-4.5 0.67h-11.21v-24.42zm7.54 5.53v13.34h1.85c1.58 0 2.7-0.18 3.37-0.53 0.66-0.35 1.19-0.96 1.56-1.83 0.38-0.87 0.57-2.28 0.57-4.24 0-2.58-0.42-4.36-1.27-5.31-0.84-0.96-2.24-1.43-4.19-1.43h-1.89zm17.93 6.69c0-3.98 1.11-7.09 3.33-9.31s5.31-3.33 9.28-3.33c4.06 0 7.19 1.09 9.39 3.27 2.2 2.19 3.3 5.24 3.3 9.17 0 2.86-0.48 5.2-1.44 7.02-0.96 1.83-2.35 3.25-4.17 4.27-1.81 1.01-4.07 1.52-6.78 1.52-2.76 0-5.04-0.44-6.84-1.31-1.81-0.88-3.27-2.27-4.39-4.17s-1.68-4.27-1.68-7.13zm7.54 0.04c0 2.46 0.46 4.23 1.38 5.31 0.91 1.08 2.16 1.62 3.74 1.62 1.62 0 2.87-0.53 3.76-1.59 0.89-1.05 1.33-2.95 1.33-5.68 0-2.3-0.46-3.98-1.39-5.04-0.92-1.06-2.18-1.59-3.77-1.59-1.52 0-2.74 0.54-3.66 1.62-0.93 1.08-1.39 2.86-1.39 5.35zm19.34-12.26h7.16l2.59 13.64 3.76-13.64h7.15l3.78 13.64 2.58-13.64h7.13l-5.38 24.42h-7.4l-4.28-15.38-4.26 15.38h-7.4l-5.43-24.42zm36.68 0h7.05l9.19 13.51v-13.51h7.11v24.42h-7.11l-9.14-13.41v13.41h-7.1v-24.42zm28.4 0h7.55v18.4h11.77v6.02h-19.32v-24.42zm21.84 12.22c0-3.98 1.11-7.09 3.33-9.31s5.31-3.33 9.28-3.33c4.06 0 7.19 1.09 9.39 3.27 2.2 2.19 3.3 5.24 3.3 9.17 0 2.86-0.48 5.2-1.44 7.02-0.96 1.83-2.35 3.25-4.16 4.27-1.82 1.01-4.08 1.52-6.79 1.52-2.76 0-5.03-0.44-6.84-1.31-1.8-0.88-3.27-2.27-4.39-4.17s-1.68-4.27-1.68-7.13zm7.55 0.04c0 2.46 0.45 4.23 1.37 5.31s2.16 1.62 3.74 1.62c1.62 0 2.88-0.53 3.76-1.59 0.89-1.05 1.34-2.95 1.34-5.68 0-2.3-0.47-3.98-1.39-5.04-0.93-1.06-2.19-1.59-3.78-1.59-1.52 0-2.74 0.54-3.66 1.62s-1.38 2.86-1.38 5.35zm36.87 8.12h-8.59l-1.18 4.04h-7.72l9.18-24.42h8.23l9.18 24.42h-7.9l-1.2-4.04zm-1.58-5.28l-2.7-8.77-2.68 8.77h5.38zm13.18-15.1h11.21c2.21 0 3.99 0.3 5.35 0.9s2.49 1.46 3.38 2.58 1.53 2.42 1.93 3.91 0.6 3.07 0.6 4.73c0 2.61-0.3 4.64-0.89 6.07-0.6 1.44-1.42 2.65-2.48 3.62-1.05 0.97-2.18 1.62-3.39 1.94-1.66 0.44-3.16 0.67-4.5 0.67h-11.21v-24.42zm7.54 5.53v13.34h1.85c1.58 0 2.7-0.18 3.37-0.53 0.66-0.35 1.19-0.96 1.56-1.83 0.38-0.87 0.57-2.28 0.57-4.24 0-2.58-0.42-4.36-1.27-5.31-0.84-0.96-2.24-1.43-4.19-1.43h-1.89z"/>
        <path id="text2816" d="m225.11 438.8h11.21c2.21 0 4 0.3 5.36 0.9s2.48 1.46 3.37 2.58 1.54 2.43 1.94 3.92 0.59 3.06 0.59 4.73c0 2.61-0.29 4.63-0.89 6.07-0.59 1.44-1.41 2.64-2.47 3.61-1.05 0.98-2.19 1.62-3.4 1.95-1.65 0.44-3.15 0.66-4.5 0.66h-11.21v-24.42zm7.55 5.53v13.34h1.85c1.58 0 2.7-0.17 3.36-0.52 0.67-0.35 1.19-0.96 1.57-1.83s0.57-2.29 0.57-4.24c0-2.59-0.43-4.36-1.27-5.32-0.84-0.95-2.24-1.43-4.2-1.43h-1.88zm17.92 6.7c0-3.99 1.11-7.09 3.33-9.31 2.23-2.22 5.32-3.33 9.28-3.33 4.07 0 7.2 1.09 9.4 3.27s3.3 5.24 3.3 9.17c0 2.85-0.48 5.19-1.45 7.02-0.96 1.83-2.34 3.25-4.16 4.26-1.82 1.02-4.08 1.53-6.79 1.53-2.75 0-5.03-0.44-6.84-1.32-1.8-0.88-3.26-2.26-4.38-4.16-1.13-1.9-1.69-4.28-1.69-7.13zm7.55 0.03c0 2.47 0.46 4.24 1.37 5.32 0.92 1.07 2.17 1.61 3.74 1.61 1.62 0 2.88-0.53 3.77-1.58 0.89-1.06 1.33-2.95 1.33-5.68 0-2.3-0.46-3.98-1.39-5.04s-2.19-1.59-3.77-1.59c-1.53 0-2.75 0.54-3.67 1.61-0.92 1.08-1.38 2.86-1.38 5.35zm19.34-12.26h7.16l2.58 13.64 3.77-13.64h7.14l3.78 13.64 2.59-13.64h7.13l-5.38 24.42h-7.4l-4.28-15.37-4.27 15.37h-7.39l-5.43-24.42zm36.68 0h7.04l9.2 13.51v-13.51h7.11v24.42h-7.11l-9.15-13.41v13.41h-7.09v-24.42zm28.4 0h7.54v18.41h11.78v6.01h-19.32v-24.42zm21.84 12.23c0-3.99 1.11-7.09 3.33-9.31s5.31-3.33 9.28-3.33c4.06 0 7.19 1.09 9.39 3.27s3.3 5.24 3.3 9.17c0 2.85-0.48 5.19-1.44 7.02s-2.35 3.25-4.17 4.26c-1.81 1.02-4.08 1.53-6.78 1.53-2.76 0-5.04-0.44-6.84-1.32-1.81-0.88-3.27-2.26-4.39-4.16s-1.68-4.28-1.68-7.13zm7.54 0.03c0 2.47 0.46 4.24 1.38 5.32 0.91 1.07 2.16 1.61 3.74 1.61 1.62 0 2.87-0.53 3.76-1.58 0.89-1.06 1.33-2.95 1.33-5.68 0-2.3-0.46-3.98-1.39-5.04s-2.18-1.59-3.77-1.59c-1.52 0-2.74 0.54-3.67 1.61-0.92 1.08-1.38 2.86-1.38 5.35zm36.88 8.13h-8.59l-1.19 4.03h-7.71l9.18-24.42h8.23l9.18 24.42h-7.9l-1.2-4.03zm-1.58-5.28l-2.7-8.78-2.68 8.78h5.38zm13.17-15.11h11.21c2.21 0 4 0.3 5.36 0.9s2.48 1.46 3.37 2.58 1.54 2.43 1.94 3.92 0.6 3.06 0.6 4.73c0 2.61-0.3 4.63-0.9 6.07-0.59 1.44-1.41 2.64-2.47 3.61-1.05 0.98-2.19 1.62-3.4 1.95-1.65 0.44-3.15 0.66-4.5 0.66h-11.21v-24.42zm7.55 5.53v13.34h1.85c1.58 0 2.7-0.17 3.36-0.52 0.67-0.35 1.19-0.96 1.57-1.83s0.57-2.29 0.57-4.24c0-2.59-0.43-4.36-1.27-5.32-0.84-0.95-2.24-1.43-4.2-1.43h-1.88z" fill="#fff"/>
      </g>
    </g>
  </g>
  <metadata>
    <rdf:RDF>
      <cc:Work>
        <dc:format>image/svg+xml</dc:format>
        <dc:type rdf:resource="http://purl.org/dc/dcmitype/StillImage"/>
        <cc:license rdf:resource="http://creativecommons.org/licenses/publicdomain/"/>
        <dc:publisher>
          <cc:Agent rdf:about="http://openclipart.org/">
            <dc:title>Openclipart</dc:title>
          </cc:Agent>
        </dc:publisher>
        <dc:title>download button</dc:title>
        <dc:date>2006-09-07T17:35:55</dc:date>
        <dc:description>a download button to use in webdesign</dc:description>
        <dc:source>http://openclipart.org/detail/112/download-button-by-molumen</dc:source>
        <dc:creator>
          <cc:Agent>
            <dc:title>molumen</dc:title>
          </cc:Agent>
        </dc:creator>
        <dc:subject>
          <rdf:Bag>
            <rdf:li>button</rdf:li>
            <rdf:li>click</rdf:li>
            <rdf:li>clip art</rdf:li>
            <rdf:li>clipart</rdf:li>
            <rdf:li>download</rdf:li>
            <rdf:li>green</rdf:li>
            <rdf:li>icon</rdf:li>
            <rdf:li>stripes</rdf:li>
            <rdf:li>webdesign</rdf:li>
          </rdf:Bag>
        </dc:subject>
      </cc:Work>
      <cc:License rdf:about="http://creativecommons.org/licenses/publicdomain/">
        <cc:permits rdf:resource="http://creativecommons.org/ns#Reproduction"/>
        <cc:permits rdf:resource="http://creativecommons.org/ns#Distribution"/>
        <cc:permits rdf:resource="http://creativecommons.org/ns#DerivativeWorks"/>
      </cc:License>
    </rdf:RDF>
  </metadata>
</svg>
